<svg width="18" height="24" viewBox="0 0 18 24" fill="none" xmlns="http://www.w3.org/2000/svg">
  <path fill-rule="evenodd" clip-rule="evenodd" d="M8.99924 0C7.21421 0.000328329 5.46959 0.531363 3.98714 1.5256C2.50469 2.51984 1.35135 3.93238 0.673743 5.58368C-0.00386737 7.23497 -0.175152 9.05044 0.181661 10.7993C0.538473 12.5482 1.40727 14.1515 2.67761 15.4054C2.65978 15.4608 2.64624 15.5175 2.63711 15.5749L1.512 22.7001C1.48173 22.8925 1.50191 23.0894 1.57056 23.2716C1.63921 23.4538 1.75399 23.6151 1.90367 23.7397C2.05335 23.8642 2.2328 23.9478 2.42447 23.9823C2.61614 24.0167 2.81346 24.0008 2.99715 23.9361L8.99924 21.8181L14.9998 23.9361C15.1835 24.0008 15.3808 24.0167 15.5725 23.9823C15.7642 23.9478 15.9436 23.8642 16.0933 23.7397C16.243 23.6151 16.3578 23.4538 16.4264 23.2716C16.4951 23.0894 16.5153 22.8925 16.485 22.7001L15.3599 15.5749C15.3511 15.518 15.3381 15.4618 15.3209 15.4069C16.5917 14.1531 17.461 12.5496 17.8181 10.8005C18.1752 9.05138 18.004 7.23556 17.3264 5.58396C16.6487 3.93236 15.4951 2.51958 14.0124 1.52526C12.5296 0.530952 10.7846 2.69358e-05 8.99924 0ZM2.24857 9.00024C2.24857 7.20998 2.9598 5.49304 4.2258 4.22714C5.49179 2.96124 7.20885 2.25006 8.99924 2.25006C10.7896 2.25006 12.5067 2.96124 13.7727 4.22714C15.0387 5.49304 15.7499 7.20998 15.7499 9.00024C15.7499 10.7905 15.0387 12.5074 13.7727 13.7733C12.5067 15.0392 10.7896 15.7504 8.99924 15.7504C7.20885 15.7504 5.49179 15.0392 4.2258 13.7733C2.9598 12.5074 2.24857 10.7905 2.24857 9.00024ZM13.2942 16.9114C11.9762 17.6282 10.4995 18.0026 8.99924 18.0005C7.499 18.0027 6.02221 17.6283 4.70431 16.9114L4.02925 21.1866L8.6242 19.565C8.86687 19.4792 9.13161 19.4792 9.37428 19.565L13.9692 21.1851L13.2942 16.9114Z" fill="#37FF00"/>
</svg>
